#!OML:ASF F:\VICON\USERDATA\INSTALL\rory3\rory3.ASF
:FULLY-SPECIFIED
:DEGREES
32
root 0.427262 15.0194 -38.6435 26.5814 1.017 -8.68365
lowerback 0.70684 1.32542 10.135
upperback -2.99552 2.12865 3.48917
thorax -3.30296 0.834466 -2.10516
lowerneck -17.0381 -3.68362 -7.45142
upperneck 3.75745 -3.58163 2.97839
head 4.02064 -1.72144 1.81324
rclavicle -2.08724e-014 -8.74653e-015
rhumerus -26.0929 14.1451 -83.3376
rradius 60.3263
rwrist 7.65622
rhand -23.2491 -55.8049
rfingers 7.12502
rthumb 3.20253 274.239
lclavicle -2.08724e-014 -8.74653e-015
lhumerus -46.7501 -9.98727 87.4339
lradius 49.2201
lwrist 12.2862
lhand -40.2691 -41.408
lfingers 7.12502
lthumb -13.2272 -11.8477
rfemur -45.0638 7.48424 35.4793
rtibia 71.5464
rfoot -33.742 -13.8936
rtoes -23.9271
lfemur -62.8302 10.4468 -11.5798
ltibia 105.786
lfoot -14.8783 9.14553
ltoes -5.98692
33
root 0.40919 15.0033 -38.4463 27.7442 0.737662 -7.97181
lowerback -0.0205137 1.59031 9.44966
upperback -3.55933 2.40809 3.07652
thorax -3.45501 0.96635 -2.1492
lowerneck -15.9996 -3.75016 -7.068
upperneck 3.43368 -3.82354 2.91256
head 3.76458 -1.8427 1.72665
rclavicle 2.80286e-014 -2.78299e-015
rhumerus -25.2737 14.5138 -83.2389
rradius 61.6062
rwrist 7.95925
rhand -23.5211 -55.5463
rfingers 7.12502
rthumb 2.93991 274.494
lclavicle 2.80286e-014 -2.78299e-015
lhumerus -48.8111 -10.7692 87.3039
lradius 48.8599
lwrist 11.1624
lhand -40.5916 -41.657
lfingers 7.12502
lthumb -13.538 -12.1171
rfemur -45.2143 7.56009 34.6588
rtibia 70.8454
rfoot -34.0923 -13.8552
rtoes -23.7233
lfemur -67.1866 9.88973 -12.949
ltibia 106.222
lfoot -14.6026 9.04847
ltoes -14.8316
34
root 0.403034 15.0047 -38.1986 28.0903 -0.0721879 -8.21785
lowerback -0.773118 2.03694 9.56208
upperback -3.8909 2.93195 2.93595
thorax -3.31121 1.21902 -2.34194
lowerneck -13.1782 -3.65539 -6.89257
upperneck 1.97486 -3.92328 2.70538
head 3.21327 -1.91341 1.86017
rclavicle 8.34896e-015 9.93923e-015
rhumerus -24.914 15.2444 -83.1362
rradius 62.8855
rwrist 7.78612
rhand -24.2692 -53.7929
rfingers 7.12502
rthumb 2.21739 276.239
lclavicle 8.34896e-015 9.93923e-015
lhumerus -51.3828 -11.2664 87.4486
lradius 48.6204
lwrist 10.2367
lhand -40.5202 -39.8752
lfingers 7.12502
lthumb -13.4692 -10.3308
rfemur -43.8471 8.12207 34.5973
rtibia 69.7541
rfoot -34.4362 -13.9775
rtoes -23.8958
lfemur -69.8058 10.3301 -13.45
ltibia 106.06
lfoot -16.0576 9.42284
ltoes -11.4558
35
root 0.399624 15.0344 -37.9277 27.6245 -0.608634 -8.38047
lowerback -0.0171093 2.19076 9.65724
upperback -3.60211 3.21229 2.94624
thorax -3.40094 1.35908 -2.41264
lowerneck -14.7185 -3.78062 -6.87702
upperneck 3.01695 -3.98086 2.72794
head 3.43802 -1.93261 1.64733
rclavicle 1.78906e-014 -3.18055e-015
rhumerus -23.1377 16.1699 -82.55
rradius 63.9381
rwrist 7.59284
rhand -24.4486 -53.4176
rfingers 7.12502
rthumb 2.04415 276.612
lclavicle 1.78906e-014 -3.18055e-015
lhumerus -52.6477 -11.4407 87.4851
lradius 48.4263
lwrist 9.71369
lhand -40.2735 -38.0737
lfingers 7.12502
lthumb -13.2314 -8.5136
rfemur -41.2765 8.28177 34.6589
rtibia 68.335
rfoot -34.6325 -14.5516
rtoes -25.0927
lfemur -71.1566 10.405 -13.7481
ltibia 105.282
lfoot -16.3632 8.82915
ltoes -4.50831
36
root 0.379124 15.053 -37.6882 28.5886 -0.412362 -8.01018
lowerback -0.366901 2.1979 9.24746
upperback -3.86569 3.19149 2.894
thorax -3.49663 1.35053 -2.23211
lowerneck -16.4249 -3.89895 -6.87892
upperneck 4.0253 -4.0157 2.72344
head 4.01485 -1.94838 1.61186
rclavicle -2.84262e-014 -1.11319e-014
rhumerus -21.4394 16.8388 -82.0035
rradius 64.9078
rwrist 7.69071
rhand -24.2699 -54.7261
rfingers 7.12502
rthumb 2.21666 275.306
lclavicle -2.84262e-014 -1.11319e-014
lhumerus -53.8723 -11.6731 87.4188
lradius 48.2484
lwrist 9.22538
lhand -41.9415 -37.2765
lfingers 7.12502
lthumb -14.8388 -7.82788
rfemur -40.6179 8.27269 34.3456
rtibia 66.916
rfoot -34.4884 -15.055
rtoes -26.2311
lfemur -74.7919 9.60835 -14.4461
ltibia 104.269
lfoot -16.9831 8.01097
ltoes -4.63726
37
root 0.355902 15.0725 -37.4598 29.5403 0.0876421 -7.63011
lowerback -0.392114 2.10382 9.18721
upperback -4.98969 3.14832 2.67901
thorax -4.66855 1.25087 -2.44041
lowerneck -14.7572 -3.76545 -6.747
upperneck 3.96816 -3.99976 2.87416
head 3.73895 -1.9419 1.66284
rclavicle 6.75868e-015 3.4191e-014
rhumerus -21.7228 17.3148 -82.3573
rradius 65.9349
rwrist 8.06861
rhand -23.7056 -56.1841
rfingers 7.12502
rthumb 2.76171 273.854
lclavicle 6.75868e-015 3.4191e-014
lhumerus -56.8921 -12.1302 87.5542
lradius 48.4139
lwrist 9.40457
lhand -42.2998 -38.3154
lfingers 7.12502
lthumb -15.184 -8.89247
rfemur -39.9591 8.16457 34.1416
rtibia 65.3043
rfoot -34.2551 -15.3933
rtoes -26.8091
lfemur -78.2924 8.53712 -14.9927
ltibia 102.783
lfoot -15.0328 7.10534
ltoes 0.352034
38
root 0.349726 15.1139 -37.1839 29.7546 -0.167661 -7.77054
lowerback -1.49193 2.34627 9.42214
upperback -4.41577 3.28772 2.63503
thorax -3.40756 1.37883 -2.55825
lowerneck -15.2533 -3.83387 -6.82496
upperneck 3.59092 -4.0548 3.1001
head 3.70886 -1.95042 1.73642
rclavicle -3.29983e-014 -1.98785e-014
rhumerus -19.5213 17.7391 -81.7083
rradius 66.6463
rwrist 8.3799
rhand -23.9086 -55.426
rfingers 7.12502
rthumb 2.56568 274.61
lclavicle -3.29983e-014 -1.98785e-014
lhumerus -57.3723 -12.0838 87.3073
lradius 48.4552
lwrist 8.86432
lhand -42.362 -38.7432
lfingers 7.12502
lthumb -15.2438 -9.32486
rfemur -38.1279 8.52485 34.0889
rtibia 63.5037
rfoot -34.0541 -15.255
rtoes -27.1666
lfemur -80.0218 8.2543 -15.376
ltibia 100.744
lfoot -15.3704 7.26848
ltoes 1.42127
39
root 0.354756 15.1893 -36.8543 29.0898 -1.26356 -7.9829
lowerback -1.4043 2.82408 9.81134
upperback -3.9503 3.88869 2.23621
thorax -2.85059 1.69651 -3.17503
lowerneck -15.5445 -3.96098 -6.71424
upperneck 3.68343 -4.2531 3.44081
head 3.79822 -2.02602 1.80347
rclavicle 1.33186e-014 7.55382e-015
rhumerus -18.1244 17.7448 -81.4945
rradius 67.202
rwrist 8.92702
rhand -25.8113 -51.0726
rfingers 7.12502
rthumb 0.727994 278.949
lclavicle 1.33186e-014 7.55382e-015
lhumerus -58.5285 -12.5694 87.0548
lradius 48.3976
lwrist 8.95685
lhand -42.4429 -40.2852
lfingers 7.12502
lthumb -15.3218 -10.8727
rfemur -34.9251 9.19939 33.7482
rtibia 61.555
rfoot -33.6776 -15.1019
rtoes -28.7232
lfemur -79.827 8.53332 -15.9841
ltibia 98.1721
lfoot -16.5605 8.1891
ltoes 4.73509
